HIERARCHY
ROOT SpineBase
{
  OFFSET 0.000000 0.000000 0.000000
  CHANNELS 6 Xposition Yposition Zposition Zrotation Xrotation Yrotation
  JOINT SpineMid
  {
    OFFSET -0.000000 31.660867 0.000000
    CHANNELS 3 Zrotation Xrotation Yrotation
    JOINT SpineShoulder
    {
      OFFSET 0.070731 23.570050 -0.785387
      CHANNELS 3 Zrotation Xrotation Yrotation
      JOINT Neck
      {
        OFFSET 0.048595 7.813164 -0.591082
        CHANNELS 3 Zrotation Xrotation Yrotation
        JOINT Head
        {
          OFFSET -6.027766 12.269582 1.929702
          CHANNELS 3 Zrotation Xrotation Yrotation
          End Site
          {
            OFFSET 0 0 0
          }
        }
      }
      JOINT ShoulderLeft
      {
        OFFSET -15.985902 -7.421978 6.931101
        CHANNELS 3 Zrotation Xrotation Yrotation
        JOINT ElbowLeft
        {
          OFFSET -0.929107 -28.125036 0.538345
          CHANNELS 3 Zrotation Xrotation Yrotation
          JOINT WristLeft
          {
            OFFSET 0.809062 -26.142861 -3.848300
            CHANNELS 3 Zrotation Xrotation Yrotation
            JOINT HandLeft
            {
              OFFSET -0.575184 -5.266828 0.220697
              CHANNELS 3 Zrotation Xrotation Yrotation
              JOINT HandTipLeft
              {
                OFFSET 0.878529 -8.757886 -2.191252
                CHANNELS 3 Zrotation Xrotation Yrotation
                End Site
                {
                  OFFSET 0 0 0
                }
              }
              JOINT ThumbLeft
              {
                OFFSET -1.463559 -1.509181 -0.452814
                CHANNELS 3 Zrotation Xrotation Yrotation
                End Site
                {
                  OFFSET 0 0 0
                }
              }
            }
          }
        }
      }
      JOINT ShoulderRight
      {
        OFFSET 14.545792 -1.389725 -6.781833
        CHANNELS 3 Zrotation Xrotation Yrotation
        JOINT ElbowRight
        {
          OFFSET 11.671345 -25.784594 -2.866243
          CHANNELS 3 Zrotation Xrotation Yrotation
          JOINT WristRight
          {
            OFFSET 4.571484 -19.532067 -6.720992
            CHANNELS 3 Zrotation Xrotation Yrotation
            JOINT HandRight
            {
              OFFSET 0.130795 -7.475042 -1.305919
              CHANNELS 3 Zrotation Xrotation Yrotation
              JOINT HandTipRight
              {
                OFFSET 0.169210 -7.462655 -1.987012
                CHANNELS 3 Zrotation Xrotation Yrotation
                End Site
                {
                  OFFSET 0 0 0
                }
              }
              JOINT ThumbRight
              {
                OFFSET -3.145676 -1.279996 -1.290877
                CHANNELS 3 Zrotation Xrotation Yrotation
                End Site
                {
                  OFFSET 0 0 0
                }
              }
            }
          }
        }
      }
    }
  }
  JOINT HipLeft
  {
    OFFSET -6.576496 0.212936 -1.142957
    CHANNELS 3 Zrotation Xrotation Yrotation
    JOINT KneeLeft
    {
      OFFSET -3.812922 -30.244223 -2.464734
      CHANNELS 3 Zrotation Xrotation Yrotation
      JOINT AnkleLeft
      {
        OFFSET 21.611765 -39.587470 3.670058
        CHANNELS 3 Zrotation Xrotation Yrotation
        JOINT FootLeft
        {
          OFFSET 0.588015 -8.144807 -6.018663
          CHANNELS 3 Zrotation Xrotation Yrotation
          End Site
          {
            OFFSET 0 0 0
          }
        }
      }
    }
  }
  JOINT HipRight
  {
    OFFSET 7.134331 1.782099 -5.736583
    CHANNELS 3 Zrotation Xrotation Yrotation
    JOINT KneeRight
    {
      OFFSET 9.924630 -35.240016 -14.412929
      CHANNELS 3 Zrotation Xrotation Yrotation
      JOINT AnkleRight
      {
        OFFSET 7.211384 -33.991943 -4.708900
        CHANNELS 3 Zrotation Xrotation Yrotation
        JOINT FootRight
        {
          OFFSET -3.879874 -3.406819 -13.118276
          CHANNELS 3 Zrotation Xrotation Yrotation
          End Site
          {
            OFFSET 0 0 0
          }
        }
      }
    }
  }
}
MOTION
Frames: 9
Frame Time: 0.033333
-19.544945 71.866920 331.523625 14.722067 -17.264789 -6.566855 0.353116 0.434255 9.246667 -0.604731 0.362210 0.673440 9.100434 1.365488 -13.143817 0.000000 0.000000 0.000000 -0.975928 34.019055 -5.176142 -55.656226 10.011112 3.317311 69.803605 -4.536855 9.366511 -21.449114 -4.489961 -1.997949 0.000000 0.000000 0.000000 0.000000 0.000000 0.000000 -51.429264 7.029014 10.532265 -16.967311 -2.240883 18.885763 27.835582 9.064558 -10.495889 -7.657990 -19.693434 -3.375698 0.000000 0.000000 0.000000 0.000000 0.000000 0.000000 -0.079561 -8.458933 12.446704 -33.453078 20.865739 4.794771 4.291292 -7.239713 14.949853 0.000000 0.000000 0.000000 -15.494001 -1.170379 6.644467 5.132883 13.057580 1.623709 6.223140 -28.269271 0.283015 0.000000 0.000000 0.000000
-20.492563 71.178613 330.316356 14.524992 -16.330275 -9.383581 -0.029880 0.421697 11.943348 -0.744391 0.176559 0.677427 16.828575 3.487572 -13.945621 0.000000 0.000000 0.000000 2.008978 38.567263 -7.017854 -49.243486 3.714831 -2.069817 57.155161 -19.641661 9.881153 -24.608188 -2.487940 0.396899 0.000000 0.000000 0.000000 0.000000 0.000000 0.000000 -48.627781 9.652555 11.718270 -19.499456 -0.575851 18.766075 10.731152 -18.112893 -20.410024 -0.318140 0.651184 4.074336 0.000000 0.000000 0.000000 0.000000 0.000000 0.000000 2.573381 -12.199711 16.044176 -34.975667 24.334654 6.748307 3.321148 -7.250692 15.220063 0.000000 0.000000 0.000000 -12.535194 -2.865475 7.560201 1.520736 12.859151 3.436327 6.623655 -26.740235 0.148970 0.000000 0.000000 0.000000
-21.170635 70.608853 329.417849 14.407741 -15.778941 -10.936955 -0.033349 0.378404 13.410079 -0.643230 0.029244 0.680617 21.035235 7.155313 -14.080091 0.000000 0.000000 0.000000 2.086462 42.661989 -7.786922 -39.603329 -5.033367 -5.434848 42.923434 -27.829549 8.097408 -27.871281 -2.116983 2.995987 0.000000 0.000000 0.000000 0.000000 0.000000 0.000000 -46.091475 11.809876 12.277290 -19.886703 -0.485415 16.710259 3.314253 -23.784653 -23.460583 4.882689 7.629471 4.114881 0.000000 0.000000 0.000000 0.000000 0.000000 0.000000 4.391827 -14.913621 18.394643 -35.704504 27.267384 8.293445 2.277007 -6.391987 15.460054 0.000000 0.000000 0.000000 -10.147959 -3.699921 7.743905 -1.499233 12.208157 4.900881 6.573186 -23.795596 0.678465 0.000000 0.000000 0.000000
-21.901095 69.920811 328.518224 14.792379 -15.472714 -13.751438 -0.317215 0.311836 16.277046 -0.742271 -0.066901 0.700440 21.985626 11.669476 -13.399807 0.000000 0.000000 0.000000 2.353629 44.541221 -8.270978 -29.551667 -13.768258 -5.954642 28.328835 -30.199360 5.923496 -25.018764 1.063465 3.871836 0.000000 0.000000 0.000000 0.000000 0.000000 0.000000 -45.604373 14.084580 13.860687 -17.507779 -3.518383 11.609274 12.575300 -15.159269 -16.578661 1.774928 1.964841 2.889126 0.000000 0.000000 0.000000 0.000000 0.000000 0.000000 6.605686 -17.537974 22.432579 -36.617458 30.486212 10.000030 1.333366 -4.170260 15.695788 0.000000 0.000000 0.000000 -8.573720 -4.608502 9.627800 -3.750851 11.829565 6.052303 6.331635 -21.327860 1.451211 0.000000 0.000000 0.000000
-22.372013 69.273213 327.970541 15.534163 -15.594090 -15.604998 -0.453981 0.268298 18.285457 -0.652964 -0.193147 0.738304 16.932853 16.248165 -11.139620 0.000000 0.000000 0.000000 1.935255 45.381546 -8.505090 -20.043826 -20.937924 -4.476531 13.602496 -32.569600 4.565603 -24.373228 5.381702 6.284586 0.000000 0.000000 0.000000 0.000000 0.000000 0.000000 -47.612866 16.203716 16.298701 -13.622173 -4.620966 8.342448 11.117107 -18.603577 -16.799404 8.420351 5.306277 0.236427 0.000000 0.000000 0.000000 0.000000 0.000000 0.000000 7.929222 -19.246980 25.439785 -37.307763 33.050875 11.381039 0.953649 -1.216158 15.666166 0.000000 0.000000 0.000000 -8.362813 -4.864857 11.242179 -4.811059 11.293884 6.529567 5.915514 -19.061455 3.165486 0.000000 0.000000 0.000000
-22.358862 68.806102 327.907897 16.829500 -16.251297 -16.044734 -0.652022 0.217094 19.066690 -0.416609 -0.356967 0.798090 8.587869 20.274043 -7.824348 0.000000 0.000000 0.000000 0.445636 44.867143 -8.168410 -11.911581 -27.251258 -2.179398 -9.770971 -27.008494 0.260621 -13.594476 6.655624 5.978815 0.000000 0.000000 0.000000 0.000000 0.000000 0.000000 -51.504251 17.390422 18.857546 -9.414115 -5.020090 6.664317 10.694992 -20.552528 -16.725532 15.010756 7.239927 -3.044932 0.000000 0.000000 0.000000 0.000000 0.000000 0.000000 7.365579 -20.033645 26.788442 -37.265312 34.722274 12.095464 -0.093568 0.187036 16.107511 0.000000 0.000000 0.000000 -10.367976 -4.798193 12.455935 -3.913701 11.064302 6.000889 5.198454 -17.177821 3.973289 0.000000 0.000000 0.000000
-22.281321 68.444356 328.453838 17.851077 -17.293066 -19.508388 -0.935895 0.529220 22.833657 -0.575763 -0.062763 0.807832 3.687452 21.439190 -5.837243 0.000000 0.000000 0.000000 -0.167450 45.251325 -8.192768 -6.285798 -31.439233 -0.180370 -16.585380 -40.019449 1.692719 -11.480920 22.093390 8.339767 0.000000 0.000000 0.000000 0.000000 0.000000 0.000000 -54.413654 19.071121 21.708095 -5.738884 -7.354255 3.539154 8.824928 -17.967650 -14.945844 17.451758 5.480988 -4.123455 0.000000 0.000000 0.000000 0.000000 0.000000 0.000000 7.974062 -19.415279 30.951106 -37.556356 35.755490 12.723811 -1.542998 1.078314 16.957961 0.000000 0.000000 0.000000 -12.418448 -3.024777 16.989024 -3.019633 8.915302 4.995447 4.467764 -15.537653 4.683550 0.000000 0.000000 0.000000
-22.537405 68.126077 328.515756 17.762916 -17.027010 -20.764265 -0.417693 0.286798 24.043148 -0.505946 -0.079134 0.820755 1.040293 20.423488 -5.245078 0.000000 0.000000 0.000000 -0.650109 45.273025 -8.113030 -3.982737 -32.417015 0.718336 2.233502 -57.936582 14.415496 -20.423440 42.116358 12.244278 0.000000 0.000000 0.000000 0.000000 0.000000 0.000000 -56.958008 20.328850 24.223754 -3.022211 -10.268471 0.609185 4.444792 -13.705079 -12.769639 21.254106 3.029931 -5.156826 0.000000 0.000000 0.000000 0.000000 0.000000 0.000000 9.459833 -19.715476 32.485289 -38.486175 36.442221 13.493738 -2.497544 1.871995 17.631806 0.000000 0.000000 0.000000 -12.509923 -3.240495 18.337188 -2.418854 8.772294 4.676377 3.735875 -14.660415 4.692355 0.000000 0.000000 0.000000
-22.980249 67.899845 328.469827 17.068174 -17.350988 -22.442161 0.154702 -0.329986 25.730408 -0.462495 0.340764 0.745049 0.851563 22.381670 -4.683129 0.000000 0.000000 0.000000 -0.134093 45.933772 -8.291085 -6.042016 -29.637761 -0.134985 21.273074 -74.533860 31.888762 -9.352056 59.534078 0.850003 0.000000 0.000000 0.000000 0.000000 0.000000 0.000000 -60.360427 22.584728 28.866241 -1.075541 -15.411010 -3.872839 3.894974 -7.673777 -9.889324 23.341435 -3.732039 -5.906646 0.000000 0.000000 0.000000 0.000000 0.000000 0.000000 11.781009 -19.139166 34.162995 -39.841820 37.312556 14.541757 -3.192071 2.264606 17.898115 0.000000 0.000000 0.000000 -11.951204 -2.930217 19.908932 -2.000219 9.069133 4.567968 2.940754 -14.067563 4.705851 0.000000 0.000000 0.000000
